PathFileType	4	(X/Y/Z)	C:/Users/beibeiliu/ov580/test_trc\sequence.25_training_dense_right.trc
DataRate	CameraRate	NumFrames	NumMarkers	Units	OrigDataRate	OrigDataStartFrame	OrigNumFrames
120	120	8	19	mm	120	57	84
Frame#	Time	ThumbCMC			ThumbMCP			ThumbIP			ThumbTip			IndexMCP			IndexPIP			IndexTip			MiddleMCP			MiddlePIP			MiddleTip			RingMCP			RingPIP			RingTip			PinkyMCP			PinkyPIP			PinkyTip			BackHand1			BackHand2			BackHand3	
		X0	Y0	Z0	X1	Y1	Z1	X2	Y2	Z2	X3	Y3	Z3	X4	Y4	Z4	X5	Y5	Z5	X6	Y6	Z6	X7	Y7	Z7	X8	Y8	Z8	X9	Y9	Z9	X10	Y10	Z10	X11	Y11	Z11	X12	Y12	Z12	X13	Y13	Z13	X14	Y14	Z14	X15	Y15	Z15	X16	Y16	Z16	X17	Y17	Z17	X18	Y18	Z18	
56	0.466667	98.4746	70.7015	0.732326	80.2248	92.477	-10.8153	56.5003	93.7869	-10.6199	35.9092	88.3372	2.28889	33.9322	84.6264	-17.4599	26.7149	103.457	-2.22904	50.3674	103.747	19.0291	25.7418	76.3878	-4.80096	24.4468	93.5792	18.0373	55.4382	84.703	24.9138	24.4865	65.8218	9.20063	29.9595	83.1044	31.3865	55.2951	72.8676	34.0172	25.5732	54.7806	19.7187	29.127	71.6011	38.0359	55.109	66.5512	39.5246	62.0394	31.4588	4.75849	86.7818	24.8562	12.4183	83.9521	46.2656	-8.37963	
57	0.475	101.894	63.0121	0.754191	89.9833	86.8006	-18.5441	66.5421	98.1339	-22.7649	48.8351	98.4465	-11.6687	49.1916	91.468	-31.7684	42.4501	115.299	-16.8006	62.3	110.136	6.29268	32.8965	88.6362	-15.7974	38.938	111.225	3.80519	60.3253	92.3611	15.4372	25.5171	80.5295	-0.523177	35.046	101.156	15.0166	59.2275	84.8051	20.3333	19.4406	72.7432	10.8291	30.0172	92.0706	19.0863	55.3563	80.2792	27.5345	55.5757	38.5289	1.40832	70.8325	26.3602	14.779	79.4005	42.0079	-7.28199	
58	0.483333	96.0874	61.9974	-0.635621	95.2991	83.2038	-21.4361	78.0373	95.9663	-34.0384	51.8366	101.847	-27.0585	54.4969	89.0522	-43.0173	54.727	118.196	-37.4677	69.1563	116.356	-12.6252	38.1626	90.7963	-32.4876	42.031	117.906	-15.6907	64.6112	99.2838	-0.523734	29.0931	89.4642	-20.6106	35.97	111.069	-4.32595	54.6971	97.0215	7.51534	16.6846	81.0253	-5.308	24.769	104.313	-1.63987	47.5393	99.0808	12.2069	46.3361	45.8344	2.70451	61.5985	32.1418	21.0908	74.8511	42.0712	-4.83023	
59	0.491667	91.7818	63.8031	2.95397	97.1091	77.0304	-26.2716	76.3125	82.7866	-41.138	56.5274	92.0603	-44.9749	63.6744	73.9756	-55.8581	59.0195	101.16	-59.0854	67.7722	110.455	-31.398	41.9702	81.8189	-50.418	45.5778	110.194	-44.5568	60.4341	103.14	-18.3022	27.1692	81.3905	-38.3139	34.2248	108.108	-33.5949	48.786	101.778	-11.0284	15.6757	75.1895	-21.5799	18.9582	99.3114	-29.6821	39.7047	103.977	-16.2793	42.126	49.461	-3.7757	53.1142	41.3485	24.2268	70.3177	41.7429	1.0176	
60	0.5	96.3743	62.9526	6.35743	96.79	65.073	-23.2988	85.3473	64.9518	-45.5576	61.2415	70.4423	-56.7402	69.276	49.8034	-58.2183	70.956	76.7444	-69.2081	78.2322	93.3414	-45.3003	52.859	53.6648	-54.8366	55.6507	82.2669	-65.4074	63.7991	88.8646	-30.634	33.2658	60.7054	-49.7966	39.7143	84.8542	-53.3402	51.8174	90.946	-28.2654	20.075	59.4142	-30.5289	29.1872	76.1258	-49.1228	39.7332	93.4506	-37.9745	42.9333	42.2909	-0.0455625	50.4767	44.7449	26.5519	71.4788	37.6793	4.87724	
61	0.508333	101.097	54.9038	5.99293	109.046	52.8785	-23.5147	94.5259	43.6363	-45.0774	70.8295	43.5612	-50.7679	86.2665	23.5788	-46.8845	81.1627	45.4525	-68.7324	89.1863	67.5073	-53.8627	63.1335	27.9391	-49.078	68.8854	52.3733	-69.0714	75.7982	69.5736	-43.3932	50.2903	32.6692	-47.02	53.3266	52.9759	-61.3486	61.5379	71.4973	-39.9791	35.1471	34.2977	-34.5012	36.3818	45.4947	-53.3886	54.5154	69.0741	-48.363	51.8428	32.1395	2.71942	56.1732	41.89	28.2686	83.1745	31.8914	13.3369	
62	0.516667	113.965	49.7113	9.63391	119.85	39.7697	-19.0038	105.959	22.4221	-37.8125	83.3467	19.1396	-44.4986	104.437	4.93015	-35.6758	101.396	17.1649	-60.5047	105.504	47.3012	-50.0933	85.8029	2.61765	-45.3439	88.5196	23.0647	-64.9635	87.9629	49.0171	-42.2759	67.4134	8.56268	-38.6945	75.5324	29.0528	-58.2793	77.6863	50.1733	-36.8505	50.734	11.393	-27.9986	59.0753	19.1491	-51.8107	71.6791	42.2454	-48.4963	68.8739	20.217	11.0289	66.5092	35.6616	33.2388	95.0607	25.4758	18.846	
63	0.525	127.28	46.1521	9.6892	135.532	32.3907	-15.732	127.832	12.4811	-31.0808	100.999	1.84082	-36.4042	130.274	-5.40498	-26.9784	132.079	6.4916	-54.9166	120.45	32.8595	-44.2703	113.438	-11.3357	-33.3808	112.623	2.00033	-57.8898	103.882	33.656	-40.2802	93.9394	-9.79575	-30.9207	95.0445	7.05745	-52.5974	94.0652	30.0611	-37.9355	77.3438	-8.96613	-22.7437	85.6073	-4.57805	-44.1886	89.9223	22.001	-47.756	90.0523	4.98012	15.1846	83.4646	27.813	34.6425	115.247	21.9962	23.758	
